<svg width="50" height="50" viewBox="0 0 50 50" fill="none" xmlns="http://www.w3.org/2000/svg">
<path fill-rule="evenodd" clip-rule="evenodd" d="M20.323 7.85077C19.3215 8.60798 18.2451 9.25758 17.0936 9.79954C16.9604 9.8724 16.9604 9.92808 17.0936 9.96658C17.2685 9.87645 17.4542 9.83933 17.6504 9.85522C17.3131 9.98795 16.9976 10.1736 16.7038 10.412C16.6667 10.3378 16.6296 10.2635 16.5925 10.1893C16.4737 10.2662 16.3437 10.3219 16.2027 10.3563C16.5231 10.4818 16.8572 10.5561 17.2049 10.5791C16.3812 10.5518 15.6759 10.8116 15.0891 11.3586C14.7176 11.3583 14.4577 11.5254 14.3096 11.8597C14.1032 11.7844 14.0661 11.673 14.1983 11.5256C14.8748 11.1105 15.5058 10.7208 16.0914 10.3563C15.9523 10.1532 15.8224 10.1718 15.7016 10.412C15.6121 10.2667 15.4821 10.1925 15.3118 10.1893C14.9867 10.3102 14.6526 10.3844 14.3096 10.412C15.0858 10.1541 15.8282 9.80145 16.5368 9.35411C17.1679 8.77952 17.7618 8.16705 18.3185 7.51669C18.63 7.26112 18.927 6.98273 19.2094 6.6815C20.1819 6.15915 21.1098 5.5838 21.9934 4.95544C22.1375 4.86748 22.2674 4.75612 22.3831 4.62137C22.4595 4.19582 22.5709 3.78751 22.7172 3.39642C22.8892 3.90273 22.9264 4.4224 22.8286 4.95544C22.2512 6.14515 21.416 7.11027 20.323 7.85077Z" fill="#E76530"/>
<path fill-rule="evenodd" clip-rule="evenodd" d="M28.8975 8.85299C28.4422 9.45708 27.8854 9.93964 27.2272 10.3007C26.5484 10.5842 25.8803 10.8997 25.2227 11.2472C25.0193 11.3473 24.8708 11.4959 24.7773 11.6926C25.2374 12.1161 25.6644 12.5801 26.0579 13.0846C26.3033 13.3886 26.4518 13.7227 26.5033 14.0868C25.7637 13.5591 24.9656 13.1323 24.1091 12.8062C23.462 12.6182 22.9423 12.7853 22.5501 13.3073C23.4337 14.1178 24.1019 15.0829 24.5546 16.2027C23.9256 15.4809 23.1833 14.9056 22.3274 14.4766C21.7932 14.3816 21.255 14.3259 20.7127 14.3096C20.3756 14.2964 20.06 14.3521 19.7661 14.4766C22.163 15.8287 23.1466 17.8517 22.7171 20.5456C22.4995 20.9668 22.2211 21.338 21.8819 21.6592C21.919 21.6963 21.9562 21.7335 21.9933 21.7706C22.7868 21.4776 23.4365 20.9951 23.9421 20.3229C24.4071 19.5031 24.7969 18.6494 25.1113 17.7617C25.9997 15.9504 27.1874 14.3543 28.6748 12.9733C29.776 12.0952 30.9639 11.3528 32.2383 10.7461C32.5861 10.5185 32.9572 10.3329 33.3519 10.1893C33.7973 10.0037 34.2428 9.81811 34.6882 9.6325C36.5039 8.8542 38.397 8.37165 40.3675 8.18484C41.4075 8.1663 42.4469 8.18486 43.4855 8.24052C42.9823 8.26004 42.4997 8.31572 42.0379 8.40756C40.2471 8.75543 38.7438 9.60917 37.5278 10.9688C37.2125 11.4325 36.9711 11.9336 36.804 12.4721C37.1414 13.1258 37.5868 13.7011 38.1403 14.1982C37.6038 14.3342 37.0841 14.4826 36.5813 14.6436C35.549 14.6861 34.5468 14.8345 33.5746 15.0891C32.9436 15.1882 32.3497 15.3738 31.7929 15.6459C30.3296 16.1249 29.0862 16.9416 28.0623 18.0958C27.0786 19.5431 26.1507 21.0278 25.2784 22.5501C24.0082 24.1798 22.3564 24.8109 20.3229 24.4432C19.851 24.1694 19.3684 23.891 18.8753 23.608C18.1328 23.0141 17.3905 22.4201 16.6481 21.8263C13.6229 20.4715 11.3401 21.2696 9.79954 24.2205C9.12737 25.6345 8.90465 27.1192 9.13139 28.6748C9.48281 30.9 10.2994 32.9415 11.5813 34.7995C12.0824 35.4491 12.6578 36.0245 13.3073 36.5256C13.6851 36.8256 14.0934 37.0668 14.5323 37.2494C15.6321 37.9473 16.8198 38.4669 18.0958 38.8084C19.1085 39.1358 20.1479 39.3958 21.2138 39.588C23.3361 40.0067 25.4891 40.118 27.6726 39.922C29.716 39.7973 31.6834 39.3519 33.5746 38.5857C35.9449 37.7631 38.0421 36.5011 39.8664 34.7995C40.0148 34.5768 40.1634 34.3541 40.3118 34.1314C40.4184 32.9141 40.2142 31.7635 39.6993 30.6793C39.088 29.3998 38.1971 28.3605 37.0267 27.5612C35.4228 26.191 33.5668 25.3929 31.4588 25.167C32.7901 25.9181 33.3284 27.0503 33.0735 28.5635C32.7027 29.6748 32.1459 30.677 31.4031 31.5701C30.359 32.5583 29.3754 33.5976 28.4521 34.6882C28.5201 34.3295 28.6501 33.9954 28.8419 33.686C29.1517 33.4331 29.393 33.1362 29.5657 32.7951C30.8768 31.6941 31.4893 30.2836 31.4031 28.5635C30.9294 27.1474 29.9458 26.535 28.4521 26.726C27.7717 26.9734 27.1406 27.3074 26.559 27.7283C25.7762 28.5484 24.9595 29.3279 24.1091 30.0668C23.0324 30.8372 21.8446 31.1156 20.5456 30.902C18.9396 30.2697 17.4734 30.4924 16.147 31.5701C14.972 32.9544 14.9164 34.3649 15.9799 35.8018C16.2116 36.2011 16.5085 36.5538 16.8708 36.8597C16.4965 36.7287 16.1254 36.5617 15.7572 36.3586C14.6304 35.5839 13.758 34.5817 13.1403 33.3519C13.0315 33.1024 12.9758 32.8426 12.9733 32.5724C12.9544 32.3038 13.0286 32.0625 13.196 31.8485C13.0718 31.711 13.0718 31.5811 13.196 31.4588C13.1217 31.3845 13.0475 31.3103 12.9733 31.2361C13.4145 30.9622 13.8414 30.6652 14.2539 30.3452C14.291 30.3823 14.3282 30.4195 14.3652 30.4566C14.4559 30.2581 14.5858 30.0911 14.755 29.9554C14.6344 29.7265 14.4488 29.578 14.1982 29.51C14.3583 29.4856 14.5068 29.4299 14.6436 29.343C14.8054 29.0865 14.9168 28.8452 14.9777 28.6191C14.7797 28.3814 14.7054 28.103 14.755 27.7839C16.0385 26.791 17.4862 26.1043 19.098 25.7238C19.8553 25.648 20.5977 25.518 21.3252 25.3341C23.2072 25.0674 24.6735 24.1393 25.7238 22.5501C26.4291 21.3622 27.1344 20.1745 27.8396 18.9866C29.3305 17.3973 31.1679 16.6921 33.3519 16.8708C33.6959 17.0139 34.067 17.0881 34.4655 17.0935C35.4577 17.4127 36.4228 17.821 37.3608 18.3185C37.4737 18.4492 37.6222 18.5234 37.8062 18.5412C38.1211 18.7606 38.4552 18.9647 38.8085 19.1537C37.8979 19.1727 37.007 19.2284 36.1358 19.3207C35.4135 19.3883 34.7453 19.611 34.1314 19.9889C35.3591 20.6599 36.2871 21.625 36.9154 22.8842C36.8968 22.9213 36.8783 22.9584 36.8597 22.9955C36.3462 22.4329 35.7337 22.0247 35.0223 21.7706C33.9995 21.5461 32.9602 21.4904 31.9042 21.6035C31.3876 21.7876 30.9051 22.0288 30.4566 22.3274C30.3961 22.3341 30.359 22.3711 30.3452 22.4387C30.595 22.5472 30.8548 22.5844 31.1247 22.5501C32.2518 22.6041 33.3282 22.864 34.3541 23.3296C36.0907 24.4352 37.5384 25.8456 38.6971 27.5612C38.8827 27.9324 39.0683 28.3037 39.2539 28.6748C40.0595 30.3252 40.542 32.0698 40.7015 33.9087C41.001 33.5724 41.298 33.2383 41.5924 32.9064C43.851 30.7655 45.2987 28.167 45.9354 25.1113C46.0394 24.9924 46.0766 24.844 46.0468 24.6659C46.1567 25.201 46.1939 25.7578 46.1581 26.3363C46.1581 26.8931 46.1581 27.4499 46.1581 28.0067C45.975 28.4969 45.8637 29.0166 45.824 29.5657C45.72 29.6846 45.6828 29.8331 45.7127 30.0111C45.3771 30.8691 45.0059 31.7229 44.5991 32.5724C44.154 33.2396 43.7086 33.9078 43.2628 34.5768C41.1216 37.37 38.7831 40.024 36.2472 42.539C35.876 42.836 35.5048 43.1328 35.1336 43.4298C34.8127 43.6089 34.4786 43.7573 34.1314 43.8753C33.8847 44.0288 33.6992 44.2331 33.5746 44.4877C32.8991 44.6845 32.2125 44.8701 31.5145 45.0445C31.3998 45.0819 31.3441 45.1562 31.3474 45.2672C30.3293 45.4414 29.327 45.6269 28.3407 45.824C27.0415 45.824 25.7424 45.824 24.4432 45.824C23.9978 45.824 23.5523 45.824 23.1069 45.824C22.2485 45.7898 21.3948 45.7156 20.5456 45.6013C19.6444 45.421 18.7536 45.1983 17.873 44.9332C16.863 44.6096 15.898 44.2012 14.9777 43.7082C14.971 43.2003 14.7112 42.9219 14.1982 42.873C13.9559 42.4471 13.6775 42.0573 13.363 41.7038C13.2504 41.797 13.1205 41.8341 12.9733 41.8151C12.9733 41.5924 12.9733 41.3697 12.9733 41.147C12.814 41.1382 12.6655 41.1753 12.5278 41.2583C12.4536 41.0727 12.3794 40.8872 12.3051 40.7015C12.1729 40.8568 12.0987 40.8382 12.0824 40.6459C12.3047 40.3871 12.249 40.1458 11.9154 39.922C11.7577 40.0415 11.6091 40.0415 11.4699 39.922C11.4148 39.7023 11.3962 39.4796 11.4142 39.2539C11.225 39.2361 11.0394 39.2546 10.8574 39.3096C10.951 39.4951 10.8953 39.5137 10.6904 39.3652C10.6557 39.2269 10.7114 39.1156 10.8574 39.0312C10.7973 38.8922 10.7231 38.7622 10.6347 38.6414C10.7461 38.5301 10.8574 38.4187 10.9688 38.3073C10.4537 38.2431 10.3423 38.0204 10.6347 37.6392C10.1579 37.403 10.1207 37.1432 10.5234 36.8597C10.3843 36.6566 10.2544 36.6752 10.1336 36.9154C10.0245 36.7504 9.89453 36.6019 9.74386 36.4699C9.80774 36.2963 9.88197 36.1293 9.96658 35.9688C9.64047 35.8255 9.38063 35.6028 9.18707 35.3007C9.26131 35.2264 9.33554 35.1522 9.40979 35.0779C9.22515 34.9972 9.16948 34.8672 9.24275 34.6882C9.28595 34.7915 9.36019 34.8658 9.46547 34.9109C9.63139 34.8199 9.79843 34.7272 9.96658 34.6325C9.65637 34.1531 9.43365 33.6706 9.29843 33.1848C9.37267 33.0735 9.4469 32.9621 9.52115 32.8508C9.29806 32.6181 9.16814 32.3397 9.13139 32.0156C9.05149 32.1215 8.95868 32.14 8.85299 32.0713C8.94519 31.9694 9.05655 31.8952 9.18707 31.8485C9.0386 31.7372 9.0386 31.6258 9.18707 31.5145C9.09488 31.4126 8.98352 31.3384 8.85299 31.2917C8.90393 31.2456 8.94105 31.19 8.96435 31.1247C8.55092 30.9201 8.55092 30.7531 8.96435 30.6236C8.89368 30.1401 8.74521 29.6576 8.51892 29.1759C8.54698 28.8043 8.5841 28.396 8.63028 27.951C8.34333 27.5718 8.34333 27.2007 8.63028 26.8374C8.56048 26.5765 8.44912 26.3352 8.2962 26.1136C8.37091 25.8901 8.48227 25.686 8.63028 25.5011C8.47611 25.147 8.55036 24.85 8.85299 24.6102C8.77875 24.5731 8.70452 24.536 8.63028 24.4989C8.72743 24.0106 8.95014 23.5836 9.29843 23.2182C9.04657 22.9946 9.10225 22.9576 9.46547 23.1069C9.63191 22.9276 9.65047 22.7421 9.52115 22.5501C9.72203 22.4147 9.90763 22.3033 10.0779 22.216C9.90895 22.0284 9.72336 21.8613 9.52115 21.7149C9.87175 21.5951 10.2058 21.4466 10.5234 21.2695C10.412 21.2324 10.3007 21.1952 10.1893 21.1581C10.2104 20.9546 10.2475 20.7503 10.3007 20.5456C10.426 20.3282 10.6116 20.1611 10.8574 20.0445C10.709 19.9703 10.709 19.8961 10.8574 19.8218C10.799 19.7448 10.7247 19.6891 10.6347 19.6548C10.4857 19.8593 10.3187 20.0449 10.1336 20.2116C10.1055 20.0963 10.0127 19.985 9.85522 19.8775C10.1326 19.7616 10.1326 19.6688 9.85522 19.5991C10.0037 19.562 10.1522 19.5248 10.3007 19.4877C10.2107 19.4534 10.1364 19.3978 10.0779 19.3207C10.2973 19.158 10.4829 18.9725 10.6347 18.7639C10.9705 18.5218 11.3417 18.3362 11.7483 18.2071C11.9353 18.1635 12.1209 18.1078 12.3051 18.0401C11.3407 17.9844 10.3756 17.9659 9.40979 17.9844C8.61239 17.9011 7.90713 17.6041 7.29397 17.0935C6.96662 16.1789 7.00374 15.2881 7.40533 14.4209C7.52089 14.7471 7.6508 15.0812 7.79509 15.4231C8.03355 15.7562 8.34907 15.8862 8.74164 15.8129C8.29635 15.7385 7.98083 15.4972 7.79509 15.0891C7.68255 14.4837 7.58974 13.8897 7.51669 13.3073C6.41347 12.5756 5.41125 11.7218 4.51001 10.7461C4.54806 10.6527 4.6223 10.6156 4.73273 10.6347C5.54005 10.8365 6.35669 11.0035 7.18262 11.1358C9.20823 11.7392 10.396 11.0154 10.7461 8.96435C10.8524 8.58399 10.9824 8.24991 11.1358 7.96213C11.1592 8.13563 11.2149 8.28412 11.3029 8.40756C11.3439 9.27399 11.2697 10.1277 11.0802 10.9688C11.9197 11.0223 12.6063 10.7253 13.1403 10.0779C13.6196 9.13913 13.8423 8.1369 13.8085 7.07126C14.4946 8.22425 14.476 9.35639 13.7528 10.4677C13.9417 10.5105 14.1273 10.4919 14.3096 10.412C14.6525 10.3844 14.9866 10.3102 15.3118 10.1893C15.4821 10.1925 15.612 10.2667 15.7015 10.412C15.8224 10.1718 15.9522 10.1532 16.0913 10.3563C15.5058 10.7208 14.8747 11.1105 14.1982 11.5256C14.066 11.673 14.1031 11.7844 14.3096 11.8597C14.4577 11.5254 14.7176 11.3583 15.0891 11.3586C15.6758 10.8116 16.3812 10.5518 17.2049 10.5791C16.8571 10.5561 16.523 10.4818 16.2027 10.3563C16.3436 10.3219 16.4736 10.2662 16.5924 10.1893C16.6295 10.2635 16.6667 10.3378 16.7038 10.412C16.9975 10.1736 17.313 9.98795 17.6503 9.85522C19.2266 9.45866 20.8228 9.3473 22.4387 9.52115C23.0995 9.68406 23.7863 9.75831 24.4989 9.74386C24.9257 9.7253 25.3527 9.70675 25.7795 9.68818C27.4061 9.26704 28.5197 8.28337 29.1203 6.73718C29.2846 6.24056 29.4145 5.72089 29.51 5.17816C29.5657 5.6236 29.6214 6.06903 29.677 6.51446C29.5724 7.34815 29.3126 8.12766 28.8975 8.85299Z" fill="#E76530"/>
<path fill-rule="evenodd" clip-rule="evenodd" d="M4.73271 10.6347C4.62229 10.6156 4.54805 10.6528 4.50999 10.7461C4.32439 10.5976 4.1388 10.4491 3.9532 10.3007C3.81782 10.0801 3.72502 9.85743 3.6748 9.63251C3.9427 10.0678 4.29534 10.4018 4.73271 10.6347Z" fill="#E76530"/>
<path fill-rule="evenodd" clip-rule="evenodd" d="M12.4164 13.0846C12.5336 13.068 12.6449 13.0865 12.7505 13.1403C12.2737 13.4453 12.1995 13.8166 12.5278 14.2539C13.0376 14.3612 13.316 14.157 13.363 13.6414C13.4831 13.4305 13.6317 13.3934 13.8084 13.5301C13.89 14.0827 13.6488 14.4354 13.0846 14.588C12.4343 14.7456 12.026 14.5044 11.8596 13.8641C11.9643 13.5424 12.1498 13.2826 12.4164 13.0846Z" fill="white"/>
<path fill-rule="evenodd" clip-rule="evenodd" d="M7.51663 13.3073C7.58968 13.8897 7.68249 14.4837 7.79503 15.089C7.98077 15.4972 8.29629 15.7385 8.74158 15.8129C8.34902 15.8862 8.03349 15.7562 7.79503 15.4231C7.65074 15.0811 7.52083 14.7471 7.40527 14.4209C7.50702 14.0614 7.54415 13.6903 7.51663 13.3073Z" fill="white"/>
<path fill-rule="evenodd" clip-rule="evenodd" d="M10.6346 18.7639C10.4828 18.9725 10.2972 19.158 10.0778 19.3207C10.1363 19.3978 10.2106 19.4534 10.3006 19.4877C10.1521 19.5248 10.0036 19.562 9.85512 19.5991C10.1325 19.6688 10.1325 19.7616 9.85512 19.8775C10.0126 19.985 10.1054 20.0963 10.1335 20.2116C10.3186 20.0449 10.4856 19.8594 10.6346 19.6548C10.7246 19.6891 10.7988 19.7448 10.8573 19.8218C10.7089 19.8961 10.7089 19.9703 10.8573 20.0445C10.6115 20.1611 10.4259 20.3282 10.3006 20.5457C10.0166 20.5389 9.8496 20.3904 9.79944 20.1002C9.60948 20.1902 9.51669 20.3386 9.52104 20.5457C10.2148 20.7572 10.2148 20.8872 9.52104 20.9354C9.23953 21.082 9.23953 21.2119 9.52104 21.3252C9.0143 21.702 8.606 22.166 8.2961 22.7171C8.45825 22.7642 8.51392 22.857 8.46313 22.9955C8.41703 22.9447 8.36135 22.9075 8.2961 22.8842C8.07338 23.1812 7.85066 23.4781 7.62794 23.7751C7.87465 24.0118 8.00457 24.3087 8.0177 24.6659C8.05482 24.6288 8.09194 24.5916 8.12906 24.5546C8.18474 24.6659 8.24042 24.7773 8.2961 24.8886C8.28259 25.1673 8.26404 25.4641 8.24042 25.7795C8.17924 26.0312 8.04933 26.2167 7.85066 26.3363C7.82804 26.1644 7.7538 26.0158 7.62794 25.8909C7.91799 25.6026 7.91799 25.3242 7.62794 25.0557C7.72949 24.8747 7.65526 24.7818 7.40523 24.7773C7.44635 24.5611 7.52059 24.3569 7.62794 24.1648C7.37245 23.918 7.22398 23.9737 7.18251 24.3318C7.01219 24.395 6.84515 24.4691 6.6814 24.5546C6.80015 23.7556 7.13423 23.0503 7.68362 22.4387C7.75975 22.2184 7.70407 22.0327 7.51659 21.882C7.64244 21.757 7.71669 21.6085 7.7393 21.4365C8.45578 20.2745 9.42088 19.3836 10.6346 18.7639Z" fill="#E76530"/>
<path fill-rule="evenodd" clip-rule="evenodd" d="M7.73932 21.4365C7.7167 21.6085 7.64246 21.757 7.5166 21.882C7.70409 22.0327 7.75976 22.2184 7.68364 22.4388C7.13424 23.0503 6.80017 23.7556 6.68141 24.5546C6.84517 24.4692 7.0122 24.395 7.18253 24.3318C7.21637 24.4042 7.2535 24.4785 7.29388 24.5546C7.1696 24.5437 7.05824 24.5993 6.95981 24.7216C6.85697 25.1145 6.74561 25.5042 6.62573 25.8909C6.49848 25.4872 6.35 25.4687 6.1803 25.8352C6.21741 25.8723 6.25454 25.9095 6.29166 25.9465C6.1766 26.3023 6.04668 26.6921 5.9019 27.1158C5.68927 26.5942 5.68927 26.0746 5.9019 25.5568C6.08748 25.6503 6.10603 25.5947 5.95758 25.3898C6.1146 25.3488 6.22596 25.256 6.29166 25.1114C6.18514 24.936 6.11091 24.7503 6.06894 24.5546C6.39564 23.3808 6.95244 22.3415 7.73932 21.4365Z" fill="#E76530"/>
<path fill-rule="evenodd" clip-rule="evenodd" d="M7.40539 24.7773C7.37522 25.364 7.24531 25.9579 7.01563 26.559C6.95601 26.3618 6.86321 26.3247 6.73723 26.4477C6.50642 27.0203 6.43219 27.5956 6.51452 28.1737C6.22516 29.0106 6.24372 29.8458 6.5702 30.6793C6.6475 30.5325 6.7403 30.4397 6.84859 30.4009C6.66082 29.9782 6.79074 29.6998 7.23835 29.5657C7.38359 30.5029 7.5135 31.468 7.6281 32.461C7.43591 32.4961 7.25032 32.5146 7.07131 32.5167C7.22411 32.3784 7.33546 32.2113 7.40539 32.0156C7.23629 32.0732 7.08781 31.9989 6.95995 31.7929C6.87297 31.656 6.81729 31.5076 6.79291 31.3474C6.7558 31.6444 6.71867 31.9413 6.68156 32.2383C6.62588 32.294 6.5702 32.3497 6.51452 32.4053C6.65549 32.4397 6.78541 32.4954 6.90427 32.5724C6.93781 32.9599 7.03061 33.3311 7.18267 33.686C7.14936 33.9438 7.05656 33.9438 6.90427 33.686C6.88405 33.3824 6.82837 33.0854 6.73723 32.7951C6.4457 33.3371 6.48281 33.8568 6.84859 34.3541C6.82529 34.4194 6.78817 34.475 6.73723 34.5211C7.16104 34.6765 7.2724 34.9549 7.07131 35.3563C7.16318 35.455 7.27454 35.4921 7.40539 35.4677C7.33859 35.6236 7.22723 35.735 7.07131 35.8018C6.15096 34.0303 5.61272 32.1372 5.45661 30.1225C5.23757 28.2024 5.44173 26.3464 6.06908 24.5546C6.11105 24.7503 6.18529 24.936 6.2918 25.1113C6.2261 25.256 6.11474 25.3488 5.95772 25.3897C6.10618 25.5946 6.08762 25.6503 5.90205 25.5568C5.68942 26.0746 5.68942 26.5942 5.90205 27.1158C6.04682 26.6921 6.17674 26.3023 6.2918 25.9465C6.25468 25.9095 6.21756 25.8723 6.18044 25.8352C6.35014 25.4687 6.49863 25.4872 6.62588 25.8909C6.74575 25.5042 6.85711 25.1145 6.95995 24.7216C7.05838 24.5993 7.16974 24.5436 7.29403 24.5546C7.25364 24.4785 7.21651 24.4042 7.18267 24.3318C7.22414 23.9737 7.37261 23.918 7.6281 24.1648C7.52075 24.3569 7.44651 24.5611 7.40539 24.7773Z" fill="#E76530"/>
<path fill-rule="evenodd" clip-rule="evenodd" d="M14.7549 27.7839C14.7053 28.103 14.7796 28.3814 14.9776 28.6191C14.9167 28.8452 14.8053 29.0865 14.6435 29.343C14.5067 29.4299 14.3582 29.4856 14.1981 29.51C14.4487 29.578 14.6343 29.7265 14.7549 29.9554C14.5857 30.0911 14.4558 30.2581 14.3651 30.4565C14.3281 30.4195 14.2909 30.3823 14.2538 30.3452C13.8413 30.6652 13.4144 30.9622 12.9732 31.2361C13.0474 31.3103 13.1216 31.3845 13.1959 31.4588C13.0717 31.581 13.0717 31.711 13.1959 31.8485C13.0285 32.0624 12.9543 32.3038 12.9732 32.5724C12.5226 30.611 13.1165 29.0148 14.7549 27.7839Z" fill="#E76530"/>
<path fill-rule="evenodd" clip-rule="evenodd" d="M7.62799 32.461C7.64618 32.7235 7.62761 32.9833 7.57231 33.2405C7.54456 33.1153 7.48888 33.004 7.40527 32.9064C7.48165 33.6464 7.63014 34.4073 7.85071 35.1893C7.83214 35.245 7.81359 35.3006 7.79503 35.3563C7.65947 35.2577 7.51099 35.1463 7.34959 35.0222C7.28511 35.1813 7.30367 35.3298 7.40527 35.4677C7.27443 35.4921 7.16307 35.455 7.0712 35.3563C7.27229 34.9549 7.16093 34.6765 6.73712 34.5211C6.78806 34.475 6.82517 34.4193 6.84848 34.3541C6.4827 33.8568 6.44558 33.3371 6.73712 32.7951C6.82826 33.0854 6.88394 33.3824 6.90416 33.6859C7.05644 33.9437 7.14925 33.9437 7.18256 33.6859C7.0305 33.331 6.9377 32.9599 6.90416 32.5724C6.7853 32.4954 6.65537 32.4397 6.5144 32.4053C6.57008 32.3496 6.62576 32.294 6.68144 32.2383C6.71856 31.9413 6.75568 31.6444 6.7928 31.3474C6.81718 31.5075 6.87286 31.656 6.95984 31.7928C7.0877 31.9989 7.23617 32.0731 7.40527 32.0156C7.33535 32.2113 7.22399 32.3784 7.0712 32.5167C7.25021 32.5146 7.4358 32.4961 7.62799 32.461Z" fill="#E76530"/>
<path fill-rule="evenodd" clip-rule="evenodd" d="M7.40535 24.7773C7.65539 24.7818 7.72962 24.8747 7.62807 25.0557C7.91811 25.3242 7.91811 25.6026 7.62807 25.8909C7.75393 26.0158 7.82817 26.1644 7.85079 26.3363C7.91656 26.4088 7.9908 26.4831 8.0735 26.559C7.81347 26.8594 7.81347 27.1378 8.0735 27.3942C7.9295 27.4488 7.78101 27.4674 7.62807 27.4499C7.64472 27.3327 7.62615 27.2214 7.57239 27.1158C7.52766 27.2686 7.47198 27.417 7.40535 27.5612C7.47198 27.7055 7.52766 27.8539 7.57239 28.0067C7.80521 27.8953 7.99081 27.9696 8.12918 28.2294C8.15314 28.5218 8.13457 28.7816 8.0735 29.0089C8.21014 29.1303 8.30295 29.2788 8.3519 29.4543C8.42336 29.8988 8.47904 30.3442 8.51894 30.7906C8.35437 30.7615 8.20589 30.7986 8.0735 30.902C8.14101 31.148 8.21524 31.3893 8.29622 31.6258C8.01989 31.7012 7.81572 31.6085 7.68375 31.3474C7.68966 31.9764 7.72678 32.6074 7.79511 33.2405C8.15084 34.338 8.41069 35.4516 8.57462 36.5813C8.54036 36.4913 8.48468 36.417 8.40758 36.3586C8.29622 36.5256 8.18486 36.6927 8.0735 36.8597C8.25404 37.2285 8.29115 37.2285 8.18486 36.8597C8.29055 36.791 8.38336 36.8095 8.46326 36.9154C8.48662 37.0605 8.46806 37.2089 8.40758 37.3608C8.52915 37.5948 8.64051 37.8361 8.74166 38.0846C8.94954 38.1638 9.11658 38.1081 9.24277 37.9176C9.23026 38.1045 9.17458 38.2901 9.07573 38.4744C9.11112 38.6021 9.18535 38.695 9.29845 38.7528C9.28756 38.933 9.28756 39.1 9.29845 39.2539C8.923 38.9826 8.62605 38.6486 8.40758 38.2517C7.90418 37.4677 7.45875 36.651 7.07128 35.8018C7.2272 35.735 7.33856 35.6236 7.40535 35.4677C7.30375 35.3298 7.28519 35.1813 7.34967 35.0223C7.51107 35.1463 7.65955 35.2577 7.79511 35.3563C7.81367 35.3007 7.83222 35.245 7.85079 35.1893C7.63022 34.4074 7.48173 33.6464 7.40535 32.9065C7.48896 33.004 7.54464 33.1154 7.57239 33.2405C7.62769 32.9833 7.64625 32.7235 7.62807 32.461C7.51347 31.468 7.38356 30.5029 7.23831 29.5657C6.79071 29.6998 6.66079 29.9782 6.84856 30.4009C6.74026 30.4398 6.64747 30.5325 6.57016 30.6793C6.24368 29.8458 6.22513 29.0106 6.51448 28.1737C6.43216 27.5957 6.50639 27.0203 6.7372 26.4477C6.86318 26.3247 6.95598 26.3618 7.0156 26.559C7.24527 25.9579 7.37519 25.364 7.40535 24.7773Z" fill="#E76530"/>
<path fill-rule="evenodd" clip-rule="evenodd" d="M10.3006 20.5457C10.2475 20.7503 10.2104 20.9546 10.1892 21.1581C10.3006 21.1952 10.412 21.2324 10.5233 21.2695C10.2058 21.4467 9.87169 21.5951 9.52109 21.7149C9.7233 21.8614 9.90889 22.0284 10.0779 22.216C9.90757 22.3033 9.72197 22.4147 9.52109 22.5501C9.65041 22.7421 9.63185 22.9276 9.46541 23.1069C9.10219 22.9576 9.04651 22.9947 9.29837 23.2183C8.95008 23.5836 8.72737 24.0106 8.63022 24.4989C8.70446 24.536 8.77869 24.5732 8.85293 24.6102C8.5503 24.85 8.47605 25.147 8.63022 25.5011C8.48221 25.686 8.37085 25.8901 8.29614 26.1136C8.44906 26.3352 8.56042 26.5765 8.63022 26.8374C8.34327 27.2007 8.34327 27.5718 8.63022 27.951C8.58404 28.396 8.54692 28.8043 8.51886 29.1759C8.74515 29.6576 8.89363 30.1401 8.96429 30.6236C8.55086 30.7531 8.55086 30.9202 8.96429 31.1247C8.94099 31.19 8.90387 31.2457 8.85293 31.2918C8.98346 31.3384 9.09482 31.4126 9.18701 31.5145C9.03854 31.6258 9.03854 31.7372 9.18701 31.8485C9.05649 31.8952 8.94513 31.9694 8.85293 32.0713C8.95863 32.14 9.05143 32.1215 9.13133 32.0156C9.16808 32.3398 9.298 32.6181 9.52109 32.8508C9.44684 32.9621 9.37261 33.0735 9.29837 33.1849C9.43359 33.6706 9.65631 34.1531 9.96652 34.6325C9.79837 34.7272 9.63133 34.8199 9.46541 34.9109C9.36013 34.8658 9.28589 34.7915 9.24269 34.6882C9.16942 34.8673 9.2251 34.9972 9.40973 35.0779C9.33548 35.1522 9.26125 35.2264 9.18701 35.3007C9.38057 35.6028 9.64041 35.8255 9.96652 35.9688C9.88191 36.1293 9.80768 36.2963 9.7438 36.4699C9.89447 36.6019 10.0244 36.7504 10.1336 36.9154C10.2543 36.6752 10.3843 36.6566 10.5233 36.8597C10.1207 37.1432 10.1578 37.403 10.6347 37.6392C10.3423 38.0204 10.4536 38.2431 10.9687 38.3073C10.8574 38.4187 10.746 38.5301 10.6347 38.6414C10.723 38.7622 10.7972 38.8922 10.8574 39.0312C10.7114 39.1156 10.6557 39.2269 10.6904 39.3653C10.8953 39.5137 10.951 39.4951 10.8574 39.3096C11.0394 39.2546 11.225 39.2361 11.4142 39.2539C11.3961 39.4796 11.4147 39.7023 11.4699 39.922C11.6091 40.0415 11.7576 40.0415 11.9153 39.922C12.2489 40.1458 12.3046 40.3871 12.0823 40.6459C12.0986 40.8382 12.1729 40.8568 12.3051 40.7016C12.3793 40.8872 12.4535 41.0727 12.5278 41.2583C12.6654 41.1753 12.814 41.1382 12.9732 41.147C12.9732 41.3697 12.9732 41.5924 12.9732 41.8151C13.1204 41.8341 13.2504 41.797 13.363 41.7038C13.6774 42.0573 13.9558 42.4471 14.1981 42.873C14.7112 42.9219 14.971 43.2003 14.9777 43.7082C14.6083 43.5259 14.2371 43.3403 13.8641 43.1514C12.9056 42.5639 11.9775 41.933 11.0801 41.2583C10.4424 40.6212 9.84845 39.953 9.29837 39.2539C9.28748 39.1 9.28748 38.933 9.29837 38.7528C9.18527 38.695 9.11104 38.6021 9.07565 38.4744C9.1745 38.2901 9.23018 38.1045 9.24269 37.9176C9.1165 38.1081 8.94946 38.1638 8.74158 38.0846C8.64043 37.8361 8.52907 37.5948 8.4075 37.3608C8.46798 37.2089 8.48654 37.0605 8.46318 36.9154C8.38328 36.8095 8.29047 36.791 8.18478 36.8597C8.29108 37.2285 8.25396 37.2285 8.07342 36.8597C8.18478 36.6926 8.29614 36.5256 8.4075 36.3586C8.48461 36.417 8.54028 36.4913 8.57454 36.5813C8.41061 35.4516 8.15076 34.338 7.79503 33.2405C7.7267 32.6073 7.68958 31.9764 7.68367 31.3474C7.81564 31.6085 8.01981 31.7012 8.29614 31.6258C8.21516 31.3893 8.14093 31.148 8.07342 30.902C8.20581 30.7985 8.35429 30.7615 8.51886 30.7906C8.47896 30.3442 8.42328 29.8988 8.35182 29.4543C8.30287 29.2788 8.21006 29.1303 8.07342 29.0089C8.13449 28.7816 8.15306 28.5218 8.1291 28.2294C7.99073 27.9696 7.80513 27.8953 7.57231 28.0067C7.52758 27.8539 7.4719 27.7055 7.40527 27.5612C7.4719 27.417 7.52758 27.2686 7.57231 27.1158C7.62608 27.2214 7.64464 27.3327 7.62799 27.4499C7.78093 27.4674 7.92942 27.4488 8.07342 27.3942C7.81339 27.1377 7.81339 26.8594 8.07342 26.559C7.99072 26.4831 7.91648 26.4088 7.85071 26.3363C8.04937 26.2167 8.17928 26.0312 8.24046 25.7795C8.26408 25.4641 8.28263 25.1673 8.29614 24.8886C8.24046 24.7773 8.18478 24.6659 8.1291 24.5546C8.09199 24.5916 8.05486 24.6288 8.01775 24.6659C8.00462 24.3087 7.87469 24.0118 7.62799 23.7751C7.85071 23.4781 8.07342 23.1812 8.29614 22.8842C8.3614 22.9075 8.41708 22.9447 8.46318 22.9955C8.51397 22.857 8.45829 22.7643 8.29614 22.7171C8.60604 22.166 9.01435 21.702 9.52109 21.3252C9.23957 21.2119 9.23957 21.082 9.52109 20.9354C10.2149 20.8872 10.2149 20.7572 9.52109 20.5457C9.51673 20.3386 9.60953 20.1902 9.79948 20.1002C9.84965 20.3904 10.0167 20.5389 10.3006 20.5457Z" fill="#E76530"/>
</svg>
